<mxfile host="app.diagrams.net" modified="2024-07-17T04:46:20.035Z" agent="Mozilla/5.0 (Macintosh; Intel Mac OS X 10_15_7) AppleWebKit/537.36 (KHTML, like Gecko) Chrome/126.0.0.0 Safari/537.36" version="24.7.0" etag="vfzasFSV5MPuu0OSGLvn" type="github">
  <diagram name="Page-1" id="KiIEzOGdP_yJ4D4fxXe0">
    <mxGraphModel>
      <root>
        <mxCell id="0" />
        <mxCell id="1" parent="0" />
      </root>
    </mxGraphModel>
  </diagram>
</mxfile>
